<?xml version="1.0" standalone="no"?>
<!DOCTYPE svg PUBLIC "-//W3C//DTD SVG 20010904//EN"
 "http://www.w3.org/TR/2001/REC-SVG-20010904/DTD/svg10.dtd">
<svg version="1.0" xmlns="http://www.w3.org/2000/svg"
 width="3000.000000pt" height="3000.000000pt" viewBox="0 0 3000.000000 3000.000000"
 preserveAspectRatio="xMidYMid meet">

<g transform="translate(0.000000,3000.000000) scale(0.100000,-0.100000)"
fill="#000000" stroke="none">
<path d="M14977 21906 c-10 -47 -17 -130 -17 -185 0 -55 -4 -111 -10 -126 -5
-14 -14 -67 -20 -118 -5 -51 -16 -135 -25 -187 -8 -52 -17 -115 -20 -140 -4
-25 -12 -72 -20 -105 -7 -33 -19 -87 -25 -120 -29 -146 -67 -301 -120 -490
-12 -44 -26 -93 -30 -110 -4 -16 -16 -55 -27 -85 -11 -30 -30 -89 -43 -130
-13 -41 -31 -95 -41 -120 -9 -25 -41 -108 -69 -185 -29 -77 -63 -164 -76 -193
-13 -29 -36 -80 -50 -115 -76 -181 -273 -563 -398 -771 -39 -65 -78 -131 -86
-145 -8 -14 -51 -80 -94 -146 -539 -813 -1221 -1500 -2026 -2040 -301 -201
-474 -300 -840 -481 -129 -64 -243 -120 -252 -125 -10 -5 -22 -9 -27 -9 -5 0
-43 -15 -84 -34 -41 -19 -112 -49 -158 -67 -46 -17 -97 -37 -114 -44 -87 -36
-312 -110 -575 -189 -43 -13 -190 -51 -310 -81 -173 -42 -147 -36 -335 -70
-174 -32 -261 -46 -335 -56 -127 -16 -360 -40 -463 -47 l-98 -7 -29 -69 c-28
-65 -34 -87 -31 -112 1 -10 178 -32 204 -26 17 4 443 -51 527 -68 25 -5 92
-16 150 -25 58 -9 127 -23 154 -31 26 -8 57 -14 68 -14 11 0 43 -6 71 -14 29
-7 77 -19 107 -26 30 -6 75 -17 100 -25 25 -7 74 -20 110 -30 150 -39 248 -68
285 -84 11 -5 47 -17 80 -26 33 -10 68 -21 77 -26 10 -5 23 -9 30 -9 10 0 114
-38 203 -76 17 -6 51 -19 76 -27 26 -9 92 -36 148 -61 55 -25 104 -46 107 -46
14 0 403 -190 544 -266 423 -226 989 -616 1289 -889 31 -28 82 -72 113 -98
174 -145 644 -640 806 -847 89 -113 225 -292 258 -339 81 -114 151 -215 169
-246 12 -19 28 -42 36 -52 9 -10 28 -40 44 -68 15 -27 58 -99 95 -160 124
-202 311 -568 425 -830 165 -383 333 -895 410 -1255 9 -41 20 -91 25 -110 5
-19 17 -75 25 -125 9 -49 22 -126 30 -170 8 -44 17 -96 20 -115 12 -72 36
-279 45 -390 18 -227 33 -300 60 -300 13 0 28 86 40 217 15 175 40 382 50 431
11 45 14 139 5 130 -3 -3 -8 -23 -10 -44 -7 -65 -26 -196 -36 -254 -5 -31 -14
-114 -19 -185 -10 -128 -16 -186 -26 -254 -8 -49 -24 -20 -24 44 0 107 -55
578 -82 695 -5 25 -13 74 -18 110 -4 36 -15 97 -25 135 -16 69 -20 86 -45 215
-7 36 -16 74 -21 85 -5 11 -13 38 -18 60 -5 22 -17 67 -26 100 -9 33 -20 76
-24 95 -5 19 -13 46 -18 60 -12 28 -35 104 -53 170 -6 25 -18 58 -26 73 -8 16
-14 37 -14 48 0 11 -4 27 -9 37 -5 9 -17 37 -26 62 -9 25 -23 58 -31 73 -8 16
-14 35 -14 42 0 8 -12 42 -26 77 -24 59 -32 78 -68 161 -8 17 -22 50 -31 72
-9 22 -20 49 -25 60 -10 26 -84 183 -123 265 -18 36 -35 67 -39 68 -5 2 -8 12
-8 22 0 9 -7 23 -15 30 -8 7 -15 20 -15 30 0 10 -7 23 -15 30 -8 7 -15 20 -15
30 0 10 -7 20 -15 24 -8 3 -15 13 -16 23 0 10 -9 32 -19 48 -11 17 -29 48 -40
70 -28 54 -47 87 -59 105 -47 69 -61 93 -61 105 0 8 -6 18 -13 22 -20 12 -79
121 -72 133 4 6 1 9 -6 8 -6 -2 -15 9 -19 23 -4 14 -19 37 -34 52 -14 14 -26
33 -26 40 0 8 -7 18 -15 21 -9 3 -22 21 -30 40 -8 18 -30 49 -50 67 -30 29
-35 39 -31 68 3 24 1 30 -7 22 -6 -6 -14 -11 -17 -11 -13 0 -31 53 -25 72 6
16 3 18 -18 13 -17 -5 -26 -2 -31 10 -3 9 -2 13 4 10 6 -3 10 0 10 8 0 8 -11
18 -25 21 -18 5 -25 13 -25 30 0 13 -7 26 -15 30 -8 3 -15 13 -15 23 0 16 2
16 18 -3 9 -12 26 -24 38 -26 17 -4 20 -1 16 18 -2 14 -9 21 -18 17 -20 -8
-45 17 -39 37 6 20 -27 33 -62 24 -16 -5 -24 1 -37 27 -19 38 -19 39 -6 39 6
0 10 -7 10 -16 0 -8 4 -12 10 -9 5 3 19 1 30 -5 16 -9 22 -8 27 6 3 9 0 20 -8
25 -12 8 -12 11 1 19 17 11 36 7 33 -8 -4 -19 48 -24 68 -7 10 10 23 14 28 10
6 -3 11 1 11 9 0 8 -9 18 -20 21 -11 3 -20 9 -20 13 -1 19 -58 67 -80 67 -35
0 -39 32 -6 45 26 10 35 34 16 45 -15 9 -2 25 21 25 22 0 24 -11 7 -28 -10
-10 -10 -15 2 -22 18 -12 33 -13 26 -2 -2 4 0 14 5 22 8 13 10 13 19 0 12 -18
13 -33 2 -26 -4 2 -8 -4 -9 -14 -2 -27 26 -14 33 15 7 29 53 40 70 17 7 -9 10
-21 7 -26 -4 -5 -2 -7 3 -3 15 9 47 -20 38 -34 -5 -9 -2 -10 10 -6 10 4 20 7
22 7 2 0 4 7 4 15 0 8 -5 15 -11 15 -6 0 -19 10 -29 23 -10 13 -34 32 -54 42
-26 14 -36 26 -36 43 0 14 -4 21 -11 17 -6 -4 -7 -19 -4 -37 6 -27 5 -29 -16
-26 -19 2 -23 9 -25 41 0 23 4 41 12 44 7 2 15 11 18 18 3 9 0 12 -9 9 -19 -8
-52 43 -37 58 14 14 33 1 30 -20 -2 -10 3 -16 11 -14 7 1 18 -2 25 -7 8 -6 11
-1 12 20 1 22 -3 29 -17 29 -31 0 -49 12 -49 32 0 17 5 20 33 16 l33 -4 -4 60
-5 59 27 -7 c28 -7 37 10 11 20 -15 6 -21 53 -7 55 36 7 58 5 64 -5 4 -6 0
-14 -9 -17 -24 -8 -26 -38 -2 -32 10 3 19 0 19 -6 0 -6 3 -11 8 -11 6 0 7 68
3 138 -1 6 -7 12 -14 12 -20 0 -47 33 -47 58 0 24 19 40 29 24 4 -7 12 -8 21
-1 13 8 11 12 -10 29 -20 15 -23 21 -12 32 10 10 16 10 33 0 11 -7 29 -10 40
-7 12 4 21 1 25 -9 3 -8 12 -12 20 -9 9 3 14 -2 14 -17 0 -18 -4 -21 -25 -18
-17 4 -25 1 -25 -9 0 -9 -7 -12 -24 -7 -13 3 -27 1 -31 -6 -8 -13 22 -50 42
-50 7 0 13 -7 13 -15 0 -8 5 -15 10 -15 6 0 13 7 16 15 4 8 15 15 25 15 15 0
19 -7 19 -34 0 -21 6 -36 15 -40 9 -3 15 0 15 8 0 17 44 58 53 49 4 -3 7 1 7
10 0 10 -8 17 -19 17 -11 0 -23 5 -26 10 -3 6 -18 10 -31 10 -23 0 -25 4 -23
33 4 55 0 68 -18 66 -10 -1 -25 1 -33 4 -8 3 -24 7 -35 9 -15 2 -21 12 -23 41
-3 33 -1 37 21 37 13 0 32 10 43 22 17 19 17 21 2 15 -24 -8 -48 2 -48 20 0 8
5 11 10 8 6 -3 10 -1 10 5 0 7 7 10 15 6 8 -3 22 -3 30 0 13 5 10 11 -11 31
-23 21 -25 27 -15 46 6 12 9 14 7 5 -5 -19 10 -27 37 -20 16 4 26 43 10 41
-32 -5 -43 3 -43 31 0 25 4 30 25 30 19 0 25 -5 25 -21 0 -11 4 -18 9 -14 5 3
13 1 16 -5 4 -7 11 -8 18 -2 17 14 56 9 67 -8 8 -12 10 -10 10 10 -1 14 -7 34
-15 44 -15 20 -15 20 -30 0 -14 -18 -16 -18 -29 -1 -7 9 -18 17 -25 17 -18 0
-13 27 7 36 9 4 20 6 25 6 4 -1 7 6 7 16 0 10 6 24 13 32 6 8 2 6 -10 -4 -12
-10 -29 -16 -38 -12 -21 8 -15 42 7 38 9 -1 20 3 24 9 4 8 3 9 -4 5 -7 -4 -12
-3 -12 2 0 12 24 22 51 22 18 0 17 2 -7 26 -20 20 -28 24 -34 14 -5 -8 -8 2
-8 25 0 26 3 34 9 24 8 -12 10 -12 18 1 6 8 14 11 18 6 4 -5 2 -11 -4 -13 -20
-7 -15 -33 5 -33 22 0 72 22 72 32 0 4 -10 14 -21 22 -16 11 -20 22 -17 40 4
20 1 26 -13 26 -21 0 -25 15 -7 33 9 10 17 7 40 -12 15 -14 28 -31 28 -39 0
-8 7 -6 22 8 26 24 37 25 63 6 18 -12 20 -12 20 8 0 18 -5 21 -27 18 -17 -3
-34 2 -45 14 -17 17 -18 17 -21 0 -2 -9 -9 -15 -15 -13 -16 5 -18 48 -3 66 8
11 8 15 -1 18 -20 7 -16 35 5 31 9 -2 16 -9 15 -15 -1 -7 19 -10 55 -9 51 2
57 4 60 24 4 24 -13 30 -21 8 -6 -15 -64 -19 -72 -5 -7 10 5 39 17 39 5 0 16
7 24 15 14 13 12 15 -14 15 -64 0 -88 35 -32 46 36 8 41 37 10 64 -18 15 -18
19 -5 30 15 12 50 6 42 -7 -3 -5 10 -8 28 -9 19 0 32 3 29 8 -3 4 8 11 25 14
42 9 41 32 -1 30 -22 -1 -33 -7 -33 -16 0 -8 -7 -15 -15 -15 -10 0 -14 9 -13
25 1 15 0 18 -3 7 -4 -13 -11 -16 -27 -11 -36 11 -50 26 -35 36 12 7 46 4 93
-9 17 -5 18 -4 6 10 -7 9 -17 15 -21 12 -10 -6 -22 24 -15 35 3 5 13 7 23 4
13 -5 14 -4 3 4 -8 6 -10 15 -6 22 5 8 4 11 -3 6 -16 -9 -24 10 -13 31 5 10
12 26 15 36 10 31 40 16 46 -23 3 -23 8 -31 13 -22 5 6 14 12 20 12 7 0 6 -4
-3 -10 -9 -6 -10 -10 -3 -10 6 0 18 7 27 15 8 8 26 15 40 15 26 0 30 7 26 44
-1 10 2 16 7 13 5 -3 9 2 9 11 0 12 -9 17 -31 17 -16 0 -36 -4 -42 -8 -16 -10
-17 -28 -2 -25 6 2 14 -3 17 -11 3 -8 0 -11 -7 -7 -6 4 -11 2 -11 -5 0 -7 -10
-3 -23 9 -13 12 -26 19 -30 16 -6 -6 -37 19 -37 30 0 3 18 9 40 12 33 5 38 9
29 20 -9 11 -7 14 10 14 11 0 21 -4 21 -10 0 -5 5 -10 11 -10 6 0 9 7 5 15 -3
8 0 15 7 16 7 0 2 5 -10 11 -13 6 -23 17 -23 25 0 10 -6 12 -20 8 -22 -7 -34
11 -28 40 3 15 6 14 30 -4 33 -26 42 -27 26 -1 -7 11 -18 20 -23 20 -6 0 -11
9 -12 20 -1 11 4 20 11 20 7 0 19 11 26 25 8 15 20 23 27 20 8 -2 12 -1 8 4
-7 12 22 41 42 41 12 0 14 -7 10 -30 -4 -16 -3 -30 2 -30 20 0 45 53 26 55
-19 1 -40 20 -40 35 0 21 44 42 76 38 20 -3 26 0 24 11 -1 11 -13 16 -36 16
-26 0 -34 4 -33 18 2 19 -7 22 -22 7 -13 -13 -44 -2 -44 15 0 27 13 45 31 45
11 0 19 7 19 16 0 8 -4 13 -8 10 -5 -3 -9 7 -9 22 0 24 4 27 33 27 44 0 70
-25 55 -53 -15 -28 -16 -28 30 -24 22 3 46 -1 52 -7 15 -15 27 -14 27 4 0 13
-18 20 -42 16 -10 -1 -20 42 -16 70 2 20 9 24 37 24 19 0 36 5 38 11 2 6 -12
10 -34 10 -30 -1 -38 3 -37 17 1 13 -5 17 -26 15 -17 -1 -26 -7 -23 -14 6 -15
-42 -48 -57 -39 -5 3 -10 17 -10 31 0 14 4 22 10 19 6 -3 10 -1 10 4 0 6 7 11
15 11 8 0 15 5 15 10 0 6 -7 13 -15 16 -8 4 -15 14 -15 23 0 15 11 17 74 17
41 -1 78 -4 82 -8 14 -14 22 -8 17 11 -3 11 -11 22 -19 25 -17 6 -19 47 -3 63
9 9 7 12 -9 10 -23 -1 -35 -19 -36 -52 -1 -11 -9 -21 -18 -23 -23 -5 -62 33
-55 52 9 22 47 21 47 -1 0 -11 3 -13 9 -7 13 13 1 64 -15 64 -8 0 -14 9 -14
20 0 21 34 29 45 10 4 -6 19 -9 33 -8 21 2 28 -2 30 -19 2 -13 10 -23 18 -23
19 0 18 26 -1 34 -8 3 -14 9 -14 13 4 15 -13 43 -22 37 -5 -3 -9 2 -9 10 0 10
-6 13 -15 10 -10 -4 -15 0 -15 15 0 14 6 21 20 21 11 0 20 -4 20 -10 0 -5 5
-10 10 -10 16 0 12 27 -5 34 -17 6 -22 96 -5 96 6 0 10 11 10 25 0 14 5 24 11
22 6 -1 14 4 16 11 3 6 -2 12 -11 12 -9 0 -16 8 -16 20 0 29 31 25 63 -8 27
-28 38 -53 15 -34 -10 8 -13 4 -14 -14 -2 -29 6 -30 35 -3 14 13 20 27 16 40
-4 10 -2 19 4 19 16 0 43 62 31 74 -5 5 -10 18 -10 28 0 11 -5 15 -15 12 -10
-4 -15 0 -15 15 0 12 5 21 11 21 6 0 1 13 -11 30 -20 28 -20 30 -4 56 13 19
24 24 41 21 20 -4 23 0 23 25 0 25 -3 28 -27 26 -20 -2 -28 2 -28 12 0 11 9
14 32 12 27 -3 32 0 27 13 -5 11 0 18 15 22 12 3 21 13 21 25 0 18 -1 18 -16
3 -27 -27 -65 -8 -46 22 8 13 83 7 79 -6 -2 -7 7 -11 29 -11 9 0 14 7 12 17
-2 10 -12 18 -23 18 -13 0 -20 7 -20 20 0 12 6 20 15 19 10 -1 15 9 16 28 1
15 -3 28 -8 28 -5 0 -6 -4 -3 -10 3 -5 2 -10 -3 -10 -6 0 -15 14 -21 30 -5 17
-14 30 -20 30 -5 0 -9 9 -8 20 1 11 6 20 12 20 21 0 65 -25 62 -35 -4 -12 29
-46 37 -38 3 3 -1 15 -9 27 -22 30 -18 46 9 46 34 0 51 23 35 48 -13 21 -51
19 -43 -2 6 -16 -22 -40 -36 -31 -15 9 -13 19 9 44 11 13 17 29 14 37 -3 9 2
14 15 14 12 0 24 5 27 10 4 6 11 8 16 4 5 -3 6 -10 3 -16 -4 -7 -2 -8 5 -4 6
4 18 2 26 -4 12 -10 15 -9 15 4 0 9 -4 16 -9 16 -15 0 -62 50 -56 60 3 5 0 7
-8 5 -16 -7 -42 38 -32 55 4 6 13 9 21 6 15 -6 21 29 7 37 -5 2 -3 2 4 1 6 -2
13 7 15 19 2 16 9 22 28 21 27 -1 54 26 69 70 9 23 8 27 -4 22 -33 -12 -12 11
23 27 44 19 62 21 62 7 0 -5 9 -10 20 -10 41 0 20 28 -25 34 -37 6 -50 3 -76
-15 -24 -17 -36 -20 -48 -12 -19 12 -22 39 -3 36 12 -3 15 12 12 60 -1 24 2
28 21 25 12 -2 25 -9 27 -17 3 -9 0 -12 -9 -9 -10 4 -15 -1 -15 -13 0 -25 22
-24 29 1 3 14 14 20 31 20 18 0 26 5 26 18 1 10 16 24 37 34 33 15 38 16 48 2
10 -14 13 -14 23 -1 7 8 10 22 6 31 -5 12 -10 13 -26 5 -10 -6 -24 -9 -31 -6
-6 2 -18 -2 -25 -10 -16 -15 -122 -18 -122 -3 0 15 33 50 42 44 5 -3 7 0 6 7
-2 7 7 18 20 24 27 12 28 21 2 28 -11 3 -20 10 -20 17 0 7 8 9 20 5 17 -6 20
-2 20 29 0 30 4 36 21 36 12 0 23 -8 26 -20 7 -25 63 -29 63 -4 0 8 -5 12 -10
9 -6 -3 -19 -3 -30 0 -15 5 -20 13 -17 33 3 25 27 45 27 22 0 -7 6 -8 19 -1
10 6 31 9 47 8 18 -1 29 3 31 13 3 12 -9 15 -59 15 l-63 0 -3 43 c-2 31 0 42
11 42 8 0 17 -7 21 -15 6 -18 26 -20 26 -3 0 6 -10 22 -21 35 -19 19 -20 25
-8 39 11 13 11 18 2 21 -18 6 -16 30 3 37 25 9 36 -3 29 -33 -4 -19 -1 -32 10
-41 8 -7 15 -18 15 -25 0 -7 9 -15 20 -18 21 -5 29 16 10 28 -6 4 -8 10 -5 15
3 4 -4 6 -15 3 -18 -5 -20 -1 -18 37 1 30 -3 45 -15 52 -25 14 -21 53 8 72 28
18 48 20 73 7 9 -5 25 -12 35 -15 10 -3 17 -14 16 -23 0 -10 0 -20 1 -23 8
-20 3 -63 -7 -72 -17 -14 -17 -42 0 -31 6 4 19 8 27 8 17 0 27 65 14 94 -4 9
-6 26 -5 38 2 17 -2 21 -13 17 -27 -10 -33 27 -8 47 28 22 28 29 -2 29 -17 0
-26 -7 -30 -25 -8 -32 -34 -32 -42 1 -5 18 -1 29 12 39 18 13 18 14 2 15 -10
0 -18 5 -18 11 0 5 -4 7 -10 4 -5 -3 -10 3 -10 15 0 12 5 18 10 15 14 -9 13 8
-2 23 -9 9 -9 15 0 24 10 10 16 8 30 -6 16 -17 16 -18 0 -13 -12 4 -15 2 -11
-9 7 -19 16 -18 36 4 20 22 22 53 5 49 -7 -1 -13 5 -13 13 0 11 12 15 43 16
49 2 61 -9 36 -33 -12 -12 -13 -18 -5 -21 7 -2 19 5 27 17 21 29 32 27 69 -16
18 -21 36 -35 39 -32 4 4 0 14 -9 22 -18 19 -20 31 -2 21 7 -4 9 -3 4 2 -5 5
-14 9 -20 9 -7 0 -12 15 -11 37 1 33 -1 36 -20 29 -12 -4 -50 -7 -85 -6 l-65
0 -2 42 c-1 28 3 43 12 47 17 6 29 -13 26 -40 -2 -13 4 -24 13 -28 12 -4 15
-1 13 12 -2 9 3 23 12 30 13 11 13 12 0 10 -10 -2 -15 5 -14 18 0 16 -4 20
-18 16 -15 -4 -18 2 -18 31 0 24 5 37 18 41 9 3 22 8 28 11 6 3 23 -6 37 -19
l27 -25 0 26 c0 18 4 24 15 19 21 -8 19 0 -7 24 -12 11 -30 20 -39 20 -23 0
-32 15 -24 41 4 13 12 18 22 15 9 -4 22 -1 29 5 8 6 21 8 31 4 28 -12 44 -14
38 -5 -3 5 0 10 7 12 8 3 9 11 3 24 -8 18 -9 18 -12 -3 -3 -13 -11 -23 -18
-23 -16 0 -29 35 -20 50 3 5 0 10 -8 10 -19 0 -31 30 -17 44 13 13 13 29 0 21
-5 -3 -10 3 -10 14 0 12 4 21 8 21 5 0 6 14 4 31 -4 30 -3 31 25 27 25 -3 29
-1 25 14 -3 12 8 31 32 54 36 35 45 54 26 54 -5 0 -10 9 -10 20 0 13 -5 18
-15 14 -9 -4 -15 0 -15 10 0 9 7 16 15 16 8 0 19 9 25 20 9 17 6 24 -15 44
-40 37 -31 53 28 48 9 -1 17 4 17 10 0 7 12 23 28 35 l27 23 -31 -17 c-17 -9
-38 -13 -48 -10 -22 9 -16 42 6 41 10 -1 14 4 11 12 -3 8 1 14 11 14 9 0 16 7
16 15 0 31 22 54 44 45 12 -4 32 -3 46 3 19 8 21 11 9 14 -9 2 -16 14 -16 27
0 20 6 25 41 30 29 5 37 9 26 16 -8 5 -27 6 -42 3 -17 -3 -28 -1 -28 6 0 6 -9
11 -21 11 -15 0 -19 4 -15 16 5 14 4 15 -9 4 -12 -10 -15 -10 -15 4 0 15 5 18
40 20 9 1 16 13 18 28 3 25 6 27 50 25 40 -2 47 -5 50 -24 2 -13 10 -23 17
-23 11 0 12 6 5 24 -6 17 -5 26 4 29 17 7 66 -4 66 -14 0 -5 5 -9 10 -9 6 0
10 7 10 15 0 8 -5 15 -10 15 -6 0 -15 10 -20 23 -7 17 -9 18 -9 5 -1 -25 -27
-23 -34 2 -7 26 3 61 14 54 5 -3 6 2 3 10 -5 12 -11 10 -30 -11 -18 -20 -21
-29 -13 -39 21 -25 2 -45 -38 -42 -38 3 -38 3 -40 51 -2 44 0 47 23 47 23 0
25 3 23 39 -2 27 -7 37 -16 34 -8 -3 -13 3 -13 16 0 12 6 21 15 21 9 0 15 9
15 25 0 14 -7 28 -15 31 -8 4 -15 17 -15 30 0 14 -7 27 -15 30 -9 4 -15 19
-15 36 0 18 -4 27 -11 23 -6 -4 -8 -12 -6 -19 3 -7 -4 -13 -15 -13 -16 -2 -19
2 -13 20 17 54 17 77 1 83 -11 4 -14 13 -10 30 4 17 1 26 -10 30 -9 3 -16 15
-16 25 0 11 -4 27 -10 37 -16 30 -39 86 -42 107 -2 11 -11 19 -20 19 -11 -1
-14 5 -10 18 5 22 -28 128 -40 128 -4 0 -8 13 -8 29 0 16 -7 34 -15 41 -8 7
-15 22 -15 34 -1 11 -7 32 -15 46 -8 14 -15 36 -15 50 0 14 -7 34 -15 44 -8
11 -13 28 -10 37 3 9 -1 24 -10 32 -8 9 -15 29 -15 45 0 16 -7 35 -15 42 -8 7
-15 27 -15 44 0 18 -7 41 -15 52 -8 10 -15 33 -15 51 0 17 -4 35 -10 38 -5 3
-10 23 -10 44 0 20 -4 41 -9 46 -9 9 -18 46 -43 175 -5 30 -14 59 -19 65 -5 5
-9 24 -9 41 0 18 -5 45 -12 61 -6 15 -15 53 -19 83 -22 152 -28 187 -38 213
-6 16 -11 43 -11 60 0 17 -7 66 -16 108 -10 44 -14 85 -9 95 7 17 27 -79 64
-306 5 -30 14 -75 19 -100 6 -25 18 -81 27 -125 9 -44 21 -96 26 -115 17 -67
61 -245 69 -280 4 -19 13 -51 19 -70 7 -19 16 -48 21 -65 126 -430 281 -818
490 -1230 70 -137 150 -288 177 -335 144 -245 263 -429 416 -640 99 -137 139
-190 144 -190 2 0 2 15 -1 33 -5 27 -4 28 3 7 5 -14 12 -36 15 -50 6 -29 85
-129 275 -350 83 -96 193 -200 204 -193 6 3 16 -2 24 -12 12 -18 13 -18 13 4
0 31 -19 63 -32 55 -6 -4 -8 -3 -4 4 3 6 -26 46 -66 89 -100 107 -260 290
-347 398 -41 50 -77 89 -82 88 -5 -2 -9 3 -9 10 0 11 -68 112 -152 226 -113
153 -358 540 -448 706 -70 131 -224 436 -249 495 -13 30 -37 83 -52 118 -39
85 -75 171 -108 262 -67 180 -110 298 -125 345 -48 150 -66 206 -81 260 -10
33 -23 80 -30 105 -21 71 -62 238 -80 325 -10 44 -21 90 -26 103 -5 13 -9 32
-9 44 0 11 -6 50 -14 87 -8 36 -22 111 -31 166 -9 55 -21 122 -26 148 -5 27
-9 70 -9 95 -1 26 -7 76 -15 112 -8 36 -15 99 -15 140 -1 97 -26 270 -41 284
-9 8 -10 -4 -6 -54 3 -38 1 -57 -3 -45 -5 11 -9 39 -9 63 -1 67 -17 49 -34
-42z m60 -118 c-3 -7 -5 -2 -5 12 0 14 2 19 5 13 2 -7 2 -19 0 -25z m42 -373
c0 -24 -3 -20 -14 20 -8 28 -14 68 -14 90 1 37 2 36 14 -20 8 -33 14 -73 14
-90z m461 -1910 c0 -8 -2 -15 -4 -15 -2 0 -6 7 -10 15 -3 8 -1 15 4 15 6 0 10
-7 10 -15z m-50 -5 c0 -5 -7 -10 -15 -10 -8 0 -15 5 -15 10 0 6 7 10 15 10 8
0 15 -4 15 -10z m50 -50 c0 -5 -4 -10 -10 -10 -5 0 -10 5 -10 10 0 6 5 10 10
10 6 0 10 -4 10 -10z m53 -80 c3 -11 1 -20 -4 -20 -5 0 -9 9 -9 20 0 11 2 20
4 20 2 0 6 -9 9 -20z m-146 -62 c-3 -8 -6 -5 -6 6 -1 11 2 17 5 13 3 -3 4 -12
1 -19z m43 -43 c0 -8 -4 -15 -10 -15 -5 0 -10 7 -10 15 0 8 5 15 10 15 6 0 10
-7 10 -15z m94 -47 c-7 -11 -34 -10 -34 1 0 6 9 9 19 8 11 0 17 -5 15 -9z
m-94 -8 c0 -5 -2 -10 -4 -10 -3 0 -8 5 -11 10 -3 6 -1 10 4 10 6 0 11 -4 11
-10z m-123 -122 c-3 -7 -5 -2 -5 12 0 14 2 19 5 13 2 -7 2 -19 0 -25z m0 -50
c-3 -8 -6 -5 -6 6 -1 11 2 17 5 13 3 -3 4 -12 1 -19z m-47 -48 c0 -5 -4 -10
-10 -10 -5 0 -10 5 -10 10 0 6 5 10 10 10 6 0 10 -4 10 -10z m54 -32 c-3 -4
-9 -8 -15 -8 -5 0 -9 4 -9 8 0 5 7 9 15 9 8 0 12 -4 9 -9z m-107 -24 c-3 -3
-12 -4 -19 -1 -8 3 -5 6 6 6 11 1 17 -2 13 -5z m361 -166 c3 -13 -3 -18 -22
-18 -20 0 -26 5 -26 21 0 15 5 20 22 17 13 -2 24 -11 26 -20z m-308 2 c0 -5
-4 -10 -10 -10 -5 0 -10 5 -10 10 0 6 5 10 10 10 6 0 10 -4 10 -10z m33 -15
c-3 -9 -8 -14 -10 -11 -3 3 -2 9 2 15 9 16 15 13 8 -4z m222 -40 c0 -13 -8
-21 -22 -23 -19 -3 -23 1 -23 23 0 22 4 26 23 23 14 -2 22 -10 22 -23z m-255
0 c0 -8 -4 -15 -10 -15 -5 0 -10 7 -10 15 0 8 5 15 10 15 6 0 10 -7 10 -15z
m303 -9 c4 -10 1 -13 -9 -9 -15 6 -19 23 -5 23 5 0 11 -7 14 -14z m-336 -18
c-3 -8 -6 -5 -6 6 -1 11 2 17 5 13 3 -3 4 -12 1 -19z m-157 -158 c0 -5 -4 -10
-10 -10 -5 0 -10 5 -10 10 0 6 5 10 10 10 6 0 10 -4 10 -10z m140 -55 c0 -8
-4 -15 -10 -15 -5 0 -7 7 -4 15 4 8 8 15 10 15 2 0 4 -7 4 -15z m-170 -105 c0
-5 -4 -10 -10 -10 -5 0 -10 5 -10 10 0 6 5 10 10 10 6 0 10 -4 10 -10z m183 3
c-7 -2 -19 -2 -25 0 -7 3 -2 5 12 5 14 0 19 -2 13 -5z m-216 -175 c-3 -8 -6
-5 -6 6 -1 11 2 17 5 13 3 -3 4 -12 1 -19z m137 -10 c-9 -14 -23 2 -17 18 4
12 8 13 14 3 4 -7 5 -17 3 -21z m-230 -114 c3 -8 2 -12 -4 -9 -6 3 -10 10 -10
16 0 14 7 11 14 -7z m414 -51 c-4 -24 -48 -25 -48 -1 0 13 7 18 26 18 18 0 25
-5 22 -17z m-361 -29 c-3 -3 -12 -4 -19 -1 -8 3 -5 6 6 6 11 1 17 -2 13 -5z
m68 -34 c3 -5 1 -10 -4 -10 -6 0 -11 5 -11 10 0 6 2 10 4 10 3 0 8 -4 11 -10z
m-68 -26 c-3 -3 -12 -4 -19 -1 -8 3 -5 6 6 6 11 1 17 -2 13 -5z m-57 -54 c0
-5 -4 -10 -10 -10 -5 0 -10 5 -10 10 0 6 5 10 10 10 6 0 10 -4 10 -10z m60 0
c0 -5 -4 -10 -10 -10 -5 0 -10 5 -10 10 0 6 5 10 10 10 6 0 10 -4 10 -10z m73
-84 c4 -10 1 -13 -8 -9 -8 3 -12 9 -9 14 7 12 11 11 17 -5z m-120 -36 c-3 -11
-7 -20 -9 -20 -2 0 -4 9 -4 20 0 11 4 20 9 20 5 0 7 -9 4 -20z m-46 -22 c-3
-8 -6 -5 -6 6 -1 11 2 17 5 13 3 -3 4 -12 1 -19z m150 -50 c-3 -7 -5 -2 -5 12
0 14 2 19 5 13 2 -7 2 -19 0 -25z m-97 2 c0 -5 -5 -10 -11 -10 -5 0 -7 5 -4
10 3 6 8 10 11 10 2 0 4 -4 4 -10z m-130 -80 c0 -5 -4 -10 -10 -10 -5 0 -10 5
-10 10 0 6 5 10 10 10 6 0 10 -4 10 -10z m167 -52 c-3 -8 -6 -5 -6 6 -1 11 2
17 5 13 3 -3 4 -12 1 -19z m-169 -63 c-3 -3 -9 2 -12 12 -6 14 -5 15 5 6 7 -7
10 -15 7 -18z m62 -85 c0 -11 -2 -20 -4 -20 -2 0 -6 9 -9 20 -3 11 -1 20 4 20
5 0 9 -9 9 -20z m-37 -10 c-5 -19 -23 -29 -23 -12 0 7 20 32 26 32 1 0 0 -9
-3 -20z m-103 -60 c0 -5 -4 -10 -10 -10 -5 0 -10 5 -10 10 0 6 5 10 10 10 6 0
10 -4 10 -10z m30 -50 c0 -5 -4 -10 -10 -10 -5 0 -10 5 -10 10 0 6 5 10 10 10
6 0 10 -4 10 -10z m-3 -112 c-3 -7 -5 -2 -5 12 0 14 2 19 5 13 2 -7 2 -19 0
-25z m-107 -108 c0 -5 -4 -10 -10 -10 -5 0 -10 5 -10 10 0 6 5 10 10 10 6 0
10 -4 10 -10z m80 -10 c0 -5 -2 -10 -4 -10 -3 0 -8 5 -11 10 -3 6 -1 10 4 10
6 0 11 -4 11 -10z m-49 -67 c13 -16 12 -17 -3 -4 -10 7 -18 15 -18 17 0 8 8 3
21 -13z m136 11 c-3 -3 -12 -4 -19 -1 -8 3 -5 6 6 6 11 1 17 -2 13 -5z m-227
-154 c0 -11 -4 -20 -9 -20 -5 0 -7 9 -4 20 3 11 7 20 9 20 2 0 4 -9 4 -20z
m60 -20 c0 -5 -4 -10 -10 -10 -5 0 -10 5 -10 10 0 6 5 10 10 10 6 0 10 -4 10
-10z m180 -109 c0 -14 -6 -19 -20 -18 -12 1 -20 8 -20 19 0 11 7 18 20 18 13
0 20 -7 20 -19z m-240 -56 c0 -8 -4 -15 -10 -15 -5 0 -10 7 -10 15 0 8 5 15
10 15 6 0 10 -7 10 -15z m320 -15 c13 -8 12 -11 -4 -23 -22 -16 -56 -11 -56 7
0 26 31 34 60 16z m-322 -64 c-7 -8 -15 -12 -17 -11 -5 6 10 25 20 25 5 0 4
-6 -3 -14z m20 -93 c-10 -2 -28 -2 -40 0 -13 2 -5 4 17 4 22 1 32 -1 23 -4z
m0 -40 c-10 -2 -28 -2 -40 0 -13 2 -5 4 17 4 22 1 32 -1 23 -4z m-250 -251 c2
-7 -3 -12 -12 -12 -9 0 -16 7 -16 16 0 17 22 14 28 -4z m72 3 c0 -8 -4 -15
-10 -15 -5 0 -10 7 -10 15 0 8 5 15 10 15 6 0 10 -7 10 -15z m-25 -25 c3 -5 1
-10 -4 -10 -6 0 -11 5 -11 10 0 6 2 10 4 10 3 0 8 -4 11 -10z m315 -54 c0 -8
-10 -13 -25 -13 -15 0 -25 5 -25 13 0 8 10 14 25 14 15 0 25 -6 25 -14z m-400
-136 c0 -5 -5 -10 -11 -10 -5 0 -7 5 -4 10 3 6 8 10 11 10 2 0 4 -4 4 -10z
m130 6 c0 -2 -9 -6 -20 -9 -11 -3 -20 -1 -20 4 0 5 9 9 20 9 11 0 20 -2 20 -4z
m-150 -36 c0 -5 -4 -10 -10 -10 -5 0 -10 5 -10 10 0 6 5 10 10 10 6 0 10 -4
10 -10z m20 -30 c0 -5 -2 -10 -4 -10 -3 0 -8 5 -11 10 -3 6 -1 10 4 10 6 0 11
-4 11 -10z m-25 -50 c3 -5 1 -10 -4 -10 -6 0 -11 5 -11 10 0 6 2 10 4 10 3 0
8 -4 11 -10z m65 -10 c0 -5 -4 -10 -10 -10 -5 0 -10 5 -10 10 0 6 5 10 10 10
6 0 10 -4 10 -10z m-22 -57 c-10 -2 -28 -2 -40 0 -13 2 -5 4 17 4 22 1 32 -1
23 -4z m236 -49 c-15 -22 -19 -23 -32 -11 -19 19 -7 37 24 37 24 0 24 -1 8
-26z m-337 -6 c-3 -8 -6 -5 -6 6 -1 11 2 17 5 13 3 -3 4 -12 1 -19z m373 -33
c6 -8 8 -20 4 -26 -4 -8 -3 -9 4 -5 18 11 14 -6 -7 -31 -24 -28 -26 -28 -53
-1 -25 25 -25 45 0 65 22 16 37 16 52 -2z m-403 -17 c-3 -8 -6 -5 -6 6 -1 11
2 17 5 13 3 -3 4 -12 1 -19z m93 -42 c0 -3 -4 -8 -10 -11 -5 -3 -10 -1 -10 4
0 6 5 11 10 11 6 0 10 -2 10 -4z m-93 -68 c-3 -8 -6 -5 -6 6 -1 11 2 17 5 13
3 -3 4 -12 1 -19z m-80 -125 c-3 -10 -5 -4 -5 12 0 17 2 24 5 18 2 -7 2 -21 0
-30z m80 -5 c-3 -8 -6 -5 -6 6 -1 11 2 17 5 13 3 -3 4 -12 1 -19z m-67 -223
c0 -17 -5 -25 -17 -24 -11 0 -13 3 -5 6 6 2 12 11 12 18 0 7 -6 16 -12 18 -8
3 -6 6 5 6 12 1 17 -7 17 -24z m37 -51 c-3 -3 -12 -4 -19 -1 -8 3 -5 6 6 6 11
1 17 -2 13 -5z m-147 -74 c0 -5 -2 -10 -4 -10 -3 0 -8 5 -11 10 -3 6 -1 10 4
10 6 0 11 -4 11 -10z m107 4 c-3 -3 -12 -4 -19 -1 -8 3 -5 6 6 6 11 1 17 -2
13 -5z m-54 -88 c4 -10 1 -13 -9 -9 -15 6 -19 23 -5 23 5 0 11 -7 14 -14z
m-67 -68 c-16 -9 -36 -3 -36 11 0 5 12 6 26 3 22 -4 24 -6 10 -14z m264 -113
c0 -20 -5 -25 -25 -25 -43 0 -31 46 13 49 6 1 12 -10 12 -24z m-253 -77 c-3
-8 -6 -5 -6 6 -1 11 2 17 5 13 3 -3 4 -12 1 -19z m40 0 c-3 -8 -6 -5 -6 6 -1
11 2 17 5 13 3 -3 4 -12 1 -19z m-130 -40 c-3 -8 -6 -5 -6 6 -1 11 2 17 5 13
3 -3 4 -12 1 -19z m110 0 c-3 -8 -6 -5 -6 6 -1 11 2 17 5 13 3 -3 4 -12 1 -19z
m-72 -28 c3 -6 -1 -7 -9 -4 -18 7 -21 14 -7 14 6 0 13 -4 16 -10z m52 -22 c-3
-7 -5 -2 -5 12 0 14 2 19 5 13 2 -7 2 -19 0 -25z m40 0 c-3 -7 -5 -2 -5 12 0
14 2 19 5 13 2 -7 2 -19 0 -25z m-160 -54 c-3 -3 -12 -4 -19 -1 -8 3 -5 6 6 6
11 1 17 -2 13 -5z m-60 -311 c-3 -10 -5 -2 -5 17 0 19 2 27 5 18 2 -10 2 -26
0 -35z m-102 -158 c0 -14 -6 -25 -13 -25 -7 0 -11 3 -9 8 2 4 7 15 10 25 9 24
12 21 12 -8z m125 21 c0 -2 -7 -6 -15 -10 -8 -3 -15 -1 -15 4 0 6 7 10 15 10
8 0 15 -2 15 -4z m-170 -66 c0 -5 -2 -10 -4 -10 -3 0 -8 5 -11 10 -3 6 -1 10
4 10 6 0 11 -4 11 -10z m-20 -50 c0 -5 -4 -10 -10 -10 -5 0 -10 5 -10 10 0 6
5 10 10 10 6 0 10 -4 10 -10z m326 -21 c10 -17 -13 -36 -27 -22 -12 12 -4 33
11 33 5 0 12 -5 16 -11z m-371 -89 c3 -5 1 -10 -4 -10 -6 0 -11 5 -11 10 0 6
2 10 4 10 3 0 8 -4 11 -10z m11 -60 c0 -11 -4 -20 -8 -20 -10 0 -11 24 -1 33
9 9 9 10 9 -13z m34 -105 c0 -8 -4 -15 -10 -15 -5 0 -10 7 -10 15 0 8 5 15 10
15 6 0 10 -7 10 -15z m3 -70 c-3 -9 -8 -14 -10 -11 -3 3 -2 9 2 15 9 16 15 13
8 -4z m-113 -75 c0 -5 -2 -10 -4 -10 -3 0 -8 5 -11 10 -3 6 -1 10 4 10 6 0 11
-4 11 -10z m-63 -52 c-3 -8 -6 -5 -6 6 -1 11 2 17 5 13 3 -3 4 -12 1 -19z m63
-38 c0 -11 -4 -20 -9 -20 -5 0 -7 9 -4 20 3 11 7 20 9 20 2 0 4 -9 4 -20z
m-50 -30 c0 -5 -8 -10 -17 -10 -15 0 -16 2 -3 10 19 12 20 12 20 0z m-153
-202 c-3 -8 -6 -5 -6 6 -1 11 2 17 5 13 3 -3 4 -12 1 -19z m142 -1 c12 -15 12
-17 -3 -11 -9 3 -16 13 -16 22 0 8 1 13 3 11 1 -2 9 -12 16 -22z m6 -46 c3 -5
1 -12 -5 -16 -5 -3 -10 1 -10 9 0 18 6 21 15 7z m-79 -60 c-7 -11 -56 -21 -56
-10 0 4 12 10 28 12 15 2 28 5 30 6 2 0 1 -3 -2 -8z m-36 -41 c0 -5 -2 -10 -4
-10 -3 0 -8 5 -11 10 -3 6 -1 10 4 10 6 0 11 -4 11 -10z m113 -34 c-3 -4 -9
-2 -14 5 -13 22 -11 31 5 17 8 -7 12 -17 9 -22z m271 -32 c21 -8 20 -30 -1
-38 -21 -8 -38 8 -30 28 7 18 9 18 31 10z m-514 -54 c0 -5 -4 -10 -10 -10 -5
0 -10 5 -10 10 0 6 5 10 10 10 6 0 10 -4 10 -10z m187 -26 c-3 -3 -12 -4 -19
-1 -8 3 -5 6 6 6 11 1 17 -2 13 -5z m-14 -41 c-13 -2 -35 -2 -50 0 -16 2 -5 4
22 4 28 0 40 -2 28 -4z m-133 -58 c0 -2 -9 -9 -20 -15 -12 -6 -20 -7 -20 -1 0
5 8 12 18 14 9 3 18 5 20 6 1 0 2 -1 2 -4z m90 -29 c0 -3 -4 -8 -10 -11 -5 -3
-10 -1 -10 4 0 6 5 11 10 11 6 0 10 -2 10 -4z m-233 -112 c-3 -3 -12 -4 -19
-1 -8 3 -5 6 6 6 11 1 17 -2 13 -5z m7 -52 c2 -4 -4 -8 -15 -8 -10 0 -19 4
-19 8 0 4 6 8 14 8 8 0 17 -4 20 -8z m-64 -21 c0 -6 -4 -13 -10 -16 -5 -3 -10
1 -10 9 0 9 5 16 10 16 6 0 10 -4 10 -9z m240 -15 c0 -3 -4 -8 -10 -11 -5 -3
-10 -1 -10 4 0 6 5 11 10 11 6 0 10 -2 10 -4z m148 -73 c5 -18 -28 -29 -38
-12 -5 7 -6 17 -3 22 7 12 35 5 41 -10z m-313 -113 c3 -5 1 -10 -4 -10 -6 0
-11 5 -11 10 0 6 2 10 4 10 3 0 8 -4 11 -10z m324 -129 c16 -12 22 -24 18 -35
-9 -22 -42 -16 -41 7 1 9 -3 14 -8 11 -12 -7 -29 16 -22 28 8 13 27 9 53 -11z
m-72 -173 c1 -11 -3 -18 -10 -15 -17 5 -21 34 -4 34 7 0 14 -9 14 -19z"/>
<path d="M15730 19115 c0 -8 4 -15 10 -15 5 0 7 7 4 15 -4 8 -8 15 -10 15 -2
0 -4 -7 -4 -15z"/>
<path d="M15855 18811 c-3 -5 -2 -12 3 -15 5 -3 9 1 9 9 0 17 -3 19 -12 6z"/>
<path d="M15837 18756 c-4 -10 -5 -21 -2 -24 9 -9 17 6 13 25 -3 17 -4 17 -11
-1z"/>
<path d="M15776 18743 c-6 -14 -5 -15 5 -6 7 7 10 15 7 18 -3 3 -9 -2 -12 -12z"/>
<path d="M15729 18721 c-9 -9 -19 -22 -24 -29 -6 -11 -3 -12 14 -3 11 7 21 8
21 4 0 -4 5 0 11 10 15 25 -2 39 -22 18z"/>
<path d="M15870 18710 c0 -5 5 -10 11 -10 5 0 7 5 4 10 -3 6 -8 10 -11 10 -2
0 -4 -4 -4 -10z"/>
<path d="M15970 18645 c0 -8 4 -15 10 -15 5 0 7 7 4 15 -4 8 -8 15 -10 15 -2
0 -4 -7 -4 -15z"/>
<path d="M15730 18640 c0 -5 7 -10 15 -10 8 0 15 5 15 10 0 6 -7 10 -15 10 -8
0 -15 -4 -15 -10z"/>
<path d="M15674 18629 c-4 -6 -20 -9 -39 -6 -17 3 -38 1 -46 -4 -14 -9 -12
-10 31 -14 14 -1 32 -5 40 -9 17 -7 46 29 30 39 -5 3 -12 0 -16 -6z"/>
<path d="M15765 18620 c-3 -5 -1 -10 4 -10 6 0 11 5 11 10 0 6 -2 10 -4 10 -3
0 -8 -4 -11 -10z"/>
<path d="M15700 18599 c0 -5 5 -7 10 -4 6 3 10 8 10 11 0 2 -4 4 -10 4 -5 0
-10 -5 -10 -11z"/>
<path d="M15730 18576 c0 -9 5 -16 10 -16 6 0 10 4 10 9 0 6 -4 13 -10 16 -5
3 -10 -1 -10 -9z"/>
<path d="M15618 18540 c-17 -16 -41 -30 -54 -30 -18 0 -22 -4 -17 -17 4 -10
11 -21 17 -25 6 -4 11 -17 11 -29 0 -29 21 -36 28 -9 3 13 0 23 -9 27 -19 7
-18 29 2 37 9 3 31 6 50 6 20 0 33 4 29 10 -3 5 -12 7 -20 3 -18 -6 -21 27 -3
45 26 26 -4 10 -34 -18z"/>
<path d="M15813 18543 c-16 -6 -17 -33 -3 -33 11 0 26 28 19 34 -2 2 -10 1
-16 -1z"/>
<path d="M15700 18531 c0 -5 7 -11 15 -15 9 -3 15 0 15 9 0 8 -7 15 -15 15 -8
0 -15 -4 -15 -9z"/>
<path d="M15721 18487 c-7 -10 -19 -17 -27 -17 -7 0 -16 -4 -19 -10 -8 -12 35
-13 53 -1 8 5 12 16 10 26 -3 17 -4 17 -17 2z"/>
<path d="M15722 18424 c4 -25 37 -31 34 -7 -2 10 -11 20 -20 21 -13 3 -17 -2
-14 -14z"/>
<path d="M15622 18390 c-7 -11 -12 -27 -12 -35 0 -13 4 -14 20 -5 11 6 20 7
20 3 0 -4 5 -2 11 4 14 14 61 -7 54 -24 -3 -8 3 -12 15 -10 29 5 34 14 11 22
-12 3 -21 11 -21 16 0 5 -7 9 -15 9 -8 0 -15 5 -15 11 0 5 -5 7 -11 4 -5 -4
-18 0 -27 9 -16 14 -19 13 -30 -4z"/>
<path d="M15568 18353 c6 -2 18 -2 25 0 6 3 1 5 -13 5 -14 0 -19 -2 -12 -5z"/>
<path d="M15564 18319 c-3 -6 -1 -16 5 -22 8 -8 11 -5 11 11 0 24 -5 28 -16
11z"/>
<path d="M15657 18323 c-4 -3 -7 -11 -7 -17 0 -6 5 -5 12 2 6 6 9 14 7 17 -3
3 -9 2 -12 -2z"/>
<path d="M15682 18290 c0 -14 2 -19 5 -12 2 6 2 18 0 25 -3 6 -5 1 -5 -13z"/>
<path d="M15509 18261 c-1 -3 -1 -9 0 -13 0 -4 -8 -12 -19 -18 -11 -6 -20 -17
-20 -26 0 -8 -10 -18 -22 -23 -15 -5 -18 -10 -9 -15 7 -5 25 6 47 28 25 25 44
36 64 36 22 0 30 5 29 18 0 10 -3 12 -6 5 -6 -16 -24 -17 -20 -2 1 6 -8 12
-20 14 -13 1 -24 -1 -24 -4z"/>
<path d="M15639 18210 c25 -43 58 -56 40 -16 -7 14 -16 23 -21 20 -5 -3 -16 2
-25 12 -8 11 -6 3 6 -16z"/>
<path d="M15520 18175 c0 -5 20 -10 45 -11 58 -1 58 13 0 18 -26 2 -45 -1 -45
-7z"/>
<path d="M15482 18153 c-6 -2 -9 -9 -6 -15 5 -7 -2 -9 -20 -6 -26 5 -35 -5
-16 -17 6 -4 8 -15 5 -25 -6 -20 14 -31 65 -32 16 -1 30 -5 30 -10 0 -4 5 -8
10 -8 6 0 10 7 10 15 0 14 -11 19 -36 16 -13 -2 -28 64 -19 79 7 11 -2 12 -23
3z"/>
<path d="M15547 18135 c-5 -10 0 -15 14 -15 12 0 19 5 17 12 -6 18 -25 20 -31
3z"/>
<path d="M15635 18130 c-3 -5 -1 -10 4 -10 6 0 11 5 11 10 0 6 -2 10 -4 10 -3
0 -8 -4 -11 -10z"/>
<path d="M15683 18069 c-1 -12 3 -16 13 -12 18 6 18 19 1 26 -7 3 -13 -3 -14
-14z"/>
<path d="M15785 18060 c3 -5 8 -10 11 -10 2 0 4 5 4 10 0 6 -5 10 -11 10 -5 0
-7 -4 -4 -10z"/>
<path d="M15585 18000 c-4 -6 5 -10 20 -10 15 0 24 4 20 10 -3 6 -12 10 -20
10 -8 0 -17 -4 -20 -10z"/>
<path d="M15498 17962 c-4 -15 -14 -22 -29 -22 -18 0 -20 -3 -11 -12 8 -8 18
-9 36 0 13 6 35 8 47 5 22 -6 23 -5 10 10 -7 9 -19 17 -26 17 -8 0 -15 6 -17
12 -3 7 -7 2 -10 -10z"/>
<path d="M15571 17914 c0 -11 3 -14 6 -6 3 7 2 16 -1 19 -3 4 -6 -2 -5 -13z"/>
<path d="M15455 17890 c-3 -5 -2 -10 4 -10 5 0 13 5 16 10 3 6 2 10 -4 10 -5
0 -13 -4 -16 -10z"/>
<path d="M15353 17805 c14 -29 40 -29 45 -1 2 11 0 16 -6 12 -6 -3 -13 -2 -17
4 -3 5 -12 10 -20 10 -10 0 -11 -5 -2 -25z"/>
<path d="M15440 17819 c0 -5 5 -7 11 -3 7 4 10 1 7 -7 -3 -8 -15 -20 -29 -26
-23 -12 -23 -13 -2 -13 12 0 28 -2 35 -5 11 -4 13 3 10 30 -3 21 -10 35 -18
35 -8 0 -14 -5 -14 -11z"/>
<path d="M15605 17810 c-3 -5 -1 -10 4 -10 6 0 11 5 11 10 0 6 -2 10 -4 10 -3
0 -8 -4 -11 -10z"/>
<path d="M15515 17749 c-4 -6 -5 -12 -2 -15 2 -3 7 2 10 11 7 17 1 20 -8 4z"/>
<path d="M15540 17699 c0 -5 5 -7 10 -4 6 3 10 8 10 11 0 2 -4 4 -10 4 -5 0
-10 -5 -10 -11z"/>
<path d="M15610 17698 c0 -18 20 -38 38 -38 19 0 10 20 -16 38 -19 12 -22 12
-22 0z"/>
<path d="M15560 17624 c0 -14 4 -23 10 -19 6 3 10 15 10 26 0 10 -4 19 -10 19
-5 0 -10 -12 -10 -26z"/>
<path d="M15355 17611 c-3 -5 -1 -12 5 -16 5 -3 10 -3 10 1 0 3 7 1 15 -6 12
-10 15 -10 15 3 0 8 -7 18 -16 21 -20 8 -22 8 -29 -3z"/>
<path d="M15310 17560 c0 -5 9 -10 21 -10 11 0 17 5 14 10 -3 6 -13 10 -21 10
-8 0 -14 -4 -14 -10z"/>
<path d="M15410 17555 c0 -9 6 -12 15 -9 8 4 12 10 9 15 -8 14 -24 10 -24 -6z"/>
<path d="M15570 17560 c0 -5 5 -10 10 -10 6 0 10 5 10 10 0 6 -4 10 -10 10 -5
0 -10 -4 -10 -10z"/>
<path d="M15384 17464 c41 -39 62 -35 50 10 -5 23 -11 26 -47 26 l-41 0 38
-36z"/>
<path d="M15194 17387 c1 -27 36 -36 36 -9 0 13 -2 14 -9 4 -7 -11 -9 -11 -14
2 -4 10 1 16 16 19 19 4 18 4 -4 6 -22 1 -27 -3 -25 -22z"/>
<path d="M15222 17321 c-10 -6 -10 -10 3 -21 10 -8 15 -9 15 -1 0 6 8 11 18
11 14 0 15 2 2 10 -18 12 -21 12 -38 1z"/>
<path d="M15382 17304 c3 -17 21 -21 26 -6 1 5 -4 12 -13 16 -11 4 -15 1 -13
-10z"/>
<path d="M15292 17220 c-18 -29 -15 -48 8 -55 21 -7 28 -25 10 -25 -5 0 -10
-8 -10 -17 1 -16 2 -16 15 1 18 24 20 63 3 69 -10 4 -10 7 0 18 16 17 15 29
-1 29 -7 0 -18 -9 -25 -20z"/>
<path d="M15520 17184 c0 -8 5 -12 10 -9 6 3 10 10 10 16 0 5 -4 9 -10 9 -5 0
-10 -7 -10 -16z"/>
<path d="M17252 17131 c7 -12 16 -21 21 -21 4 0 5 -4 2 -10 -3 -5 -1 -10 6
-10 7 0 9 -3 5 -7 -8 -8 6 -23 124 -140 46 -46 85 -81 87 -79 3 2 20 -12 39
-32 28 -31 35 -35 44 -22 8 13 10 13 10 -2 0 -21 59 -90 70 -83 5 3 13 -3 19
-12 9 -16 12 -16 20 -3 8 12 12 9 22 -17 6 -18 15 -33 20 -33 9 0 4 55 -7 72
-3 4 0 8 5 8 6 0 11 -8 12 -17 2 -47 26 -104 47 -111 11 -3 12 6 7 44 -5 36
-14 55 -33 72 -15 12 -35 30 -44 39 -23 21 -33 11 -18 -16 9 -17 8 -21 -5 -21
-10 0 -15 10 -15 33 0 29 -16 46 -184 192 -102 88 -191 160 -199 160 -8 0 -21
5 -28 11 -33 26 -41 27 -27 5z"/>
<path d="M15387 17125 c-4 -8 -2 -17 3 -20 6 -4 10 3 10 14 0 25 -6 27 -13 6z"/>
<path d="M15196 17083 c-9 -9 -7 -33 3 -33 12 0 22 28 12 34 -5 3 -11 3 -15
-1z"/>
<path d="M15216 17031 c-4 -6 -13 -8 -19 -4 -7 4 -6 -1 2 -11 11 -13 16 -14
22 -4 7 10 9 10 9 -1 0 -8 3 -12 6 -8 3 3 2 13 -4 23 -6 11 -11 13 -16 5z"/>
<path d="M15303 17023 c-13 -5 -7 -33 7 -33 11 0 21 28 12 33 -4 3 -12 2 -19
0z"/>
<path d="M15083 16953 c-22 -8 -14 -23 13 -23 15 0 24 5 22 12 -5 14 -18 18
-35 11z"/>
<path d="M15186 16932 c-6 -9 31 -49 38 -41 2 2 6 13 8 24 2 14 -3 21 -19 23
-11 2 -24 -1 -27 -6z"/>
<path d="M15286 16884 c-4 -9 -4 -19 -1 -22 2 -3 7 3 11 12 4 9 4 19 1 22 -2
3 -7 -3 -11 -12z"/>
<path d="M15186 16825 c4 -8 11 -15 16 -15 6 0 5 6 -2 15 -7 8 -14 15 -16 15
-2 0 -1 -7 2 -15z"/>
<path d="M15096 16795 c-3 -8 -1 -15 4 -15 6 0 10 7 10 15 0 8 -2 15 -4 15 -2
0 -6 -7 -10 -15z"/>
<path d="M15138 16782 c-3 -12 1 -18 12 -18 11 0 15 6 12 18 -2 10 -8 18 -12
18 -4 0 -10 -8 -12 -18z"/>
<path d="M15190 16790 c0 -5 5 -10 11 -10 5 0 7 5 4 10 -3 6 -8 10 -11 10 -2
0 -4 -4 -4 -10z"/>
<path d="M15280 16786 c0 -9 5 -16 10 -16 6 0 10 4 10 9 0 6 -4 13 -10 16 -5
3 -10 -1 -10 -9z"/>
<path d="M15130 16711 c0 -11 -3 -26 -6 -35 -4 -10 -1 -16 9 -16 8 0 17 -6 20
-12 2 -7 6 8 8 35 4 40 1 47 -13 47 -11 0 -18 -8 -18 -19z"/>
<path d="M15220 16691 c0 -6 4 -13 10 -16 6 -3 7 1 4 9 -7 18 -14 21 -14 7z"/>
<path d="M17815 16660 c12 -71 26 -94 20 -30 -4 30 -11 60 -17 65 -7 7 -8 -4
-3 -35z"/>
<path d="M17857 16627 c12 -68 49 -115 47 -60 -2 39 -20 79 -38 86 -12 5 -14
0 -9 -26z"/>
<path d="M15068 16633 c15 -3 22 -10 18 -19 -3 -8 -1 -14 4 -14 6 0 10 -7 10
-15 0 -8 -7 -15 -15 -15 -8 0 -15 -4 -15 -10 0 -18 17 -11 54 24 40 38 43 46
21 46 -8 0 -15 -5 -15 -12 0 -6 -7 -4 -18 5 -10 10 -29 16 -43 16 l-24 -2 23
-4z"/>
<path d="M15134 16558 c-5 -7 -3 -8 6 -3 7 4 16 2 21 -6 7 -11 9 -10 9 4 0 19
-25 23 -36 5z"/>
<path d="M14986 16544 c-4 -12 -14 -14 -38 -9 -26 5 -29 4 -15 -5 31 -20 18
-55 -28 -75 -20 -8 -20 -9 1 -12 11 -2 28 -17 38 -33 11 -20 25 -30 42 -30 31
0 31 16 -1 24 -32 8 -35 51 -5 61 11 4 18 10 15 15 -3 5 -11 7 -18 4 -8 -3
-13 4 -13 16 0 13 5 19 13 16 7 -3 13 0 13 7 0 8 4 6 10 -3 8 -12 10 -9 10 13
0 29 -14 36 -24 11z"/>
<path d="M14895 16539 c-4 -6 -5 -12 -2 -15 2 -3 7 2 10 11 7 17 1 20 -8 4z"/>
<path d="M18004 16530 c3 -14 6 -32 6 -41 0 -8 7 -24 15 -35 14 -17 14 -15 9
26 -4 25 -13 52 -22 60 -13 13 -14 12 -8 -10z"/>
<path d="M15027 16513 c-14 -13 -7 -42 8 -37 8 4 15 15 15 25 0 19 -11 25 -23
12z"/>
<path d="M18075 16478 c4 -13 9 -35 12 -50 3 -15 12 -33 20 -40 14 -11 15 -7
8 32 -9 52 -21 80 -37 80 -6 0 -8 -9 -3 -22z"/>
<path d="M14970 16436 c0 -8 4 -17 9 -20 5 -4 7 3 4 14 -6 23 -13 26 -13 6z"/>
<path d="M18187 16395 c3 -22 10 -49 14 -60 6 -13 6 -5 2 20 -3 22 -10 49 -14
60 -6 13 -6 5 -2 -20z"/>
<path d="M15137 16409 c7 -7 15 -10 18 -7 3 3 -2 9 -12 12 -14 6 -15 5 -6 -5z"/>
<path d="M15150 16310 c-9 -6 -10 -10 -3 -10 6 0 15 5 18 10 8 12 4 12 -15 0z"/>
<path d="M15080 16270 c0 -13 5 -20 13 -17 6 2 12 10 12 17 0 7 -6 15 -12 18
-8 2 -13 -5 -13 -18z"/>
<path d="M18391 16270 c0 -8 4 -22 9 -30 12 -18 12 -2 0 25 -6 13 -9 15 -9 5z"/>
<path d="M14986 16251 c-5 -7 -66 -22 -105 -25 -8 -1 -16 -6 -18 -12 -2 -7 12
-13 37 -16 32 -3 41 0 46 14 3 12 15 18 35 18 19 0 29 5 29 15 0 16 -16 20
-24 6z"/>
<path d="M14780 16220 c0 -5 5 -10 11 -10 5 0 7 5 4 10 -3 6 -8 10 -11 10 -2
0 -4 -4 -4 -10z"/>
<path d="M14968 16213 c7 -3 16 -2 19 1 4 3 -2 6 -13 5 -11 0 -14 -3 -6 -6z"/>
<path d="M18521 16169 c14 -63 20 -72 13 -19 -3 25 -10 49 -14 54 -5 4 -4 -11
1 -35z"/>
<path d="M18541 16183 c0 -4 4 -17 9 -28 6 -14 9 -16 10 -5 1 8 6 4 10 -10 l8
-25 1 27 c1 18 -6 31 -19 38 -11 6 -20 7 -19 3z"/>
<path d="M14906 16157 c3 -10 9 -15 12 -12 3 3 0 11 -7 18 -10 9 -11 8 -5 -6z"/>
<path d="M15146 16155 c4 -8 10 -12 15 -9 11 6 2 24 -11 24 -5 0 -7 -7 -4 -15z"/>
<path d="M15020 16150 c0 -5 5 -10 11 -10 5 0 7 5 4 10 -3 6 -8 10 -11 10 -2
0 -4 -4 -4 -10z"/>
<path d="M14850 16140 c0 -5 4 -10 9 -10 6 0 13 5 16 10 3 6 -1 10 -9 10 -9 0
-16 -4 -16 -10z"/>
<path d="M18644 16116 c4 -15 10 -41 13 -57 3 -16 9 -29 13 -29 4 0 4 17 0 37
-5 20 -7 40 -4 44 2 4 -4 13 -13 20 -15 13 -16 11 -9 -15z"/>
<path d="M14840 16106 c0 -10 9 -16 21 -16 24 0 21 23 -4 28 -10 2 -17 -3 -17
-12z"/>
<path d="M18621 16104 c0 -11 3 -14 6 -6 3 7 2 16 -1 19 -3 4 -6 -2 -5 -13z"/>
<path d="M15021 16094 c0 -11 3 -14 6 -6 3 7 2 16 -1 19 -3 4 -6 -2 -5 -13z"/>
<path d="M18581 16094 c0 -11 3 -14 6 -6 3 7 2 16 -1 19 -3 4 -6 -2 -5 -13z"/>
<path d="M18686 16099 c4 -6 13 -32 20 -58 l14 -46 -6 50 c-7 55 -10 65 -25
65 -6 0 -7 -5 -3 -11z"/>
<path d="M18755 16038 c22 -69 26 -75 20 -33 -9 63 -11 69 -23 73 -8 2 -7 -10
3 -40z"/>
<path d="M18796 16035 c4 -8 8 -15 10 -15 2 0 4 7 4 15 0 8 -4 15 -10 15 -5 0
-7 -7 -4 -15z"/>
<path d="M14890 16025 c7 -8 22 -15 33 -15 20 0 20 0 1 15 -27 20 -51 20 -34
0z"/>
<path d="M15070 16019 c0 -11 5 -17 10 -14 6 3 10 13 10 21 0 8 -4 14 -10 14
-5 0 -10 -9 -10 -21z"/>
<path d="M14835 16022 c2 -2 0 -14 -5 -26 -7 -20 -6 -22 16 -18 31 6 35 52 4
49 -10 -1 -17 -3 -15 -5z"/>
<path d="M18811 15994 c0 -11 3 -14 6 -6 3 7 2 16 -1 19 -3 4 -6 -2 -5 -13z"/>
<path d="M18891 15984 c0 -11 3 -14 6 -6 3 7 2 16 -1 19 -3 4 -6 -2 -5 -13z"/>
<path d="M14750 15970 c-13 -8 -12 -10 3 -10 9 0 17 5 17 10 0 12 -1 12 -20 0z"/>
<path d="M18946 15955 c4 -8 8 -15 10 -15 2 0 4 7 4 15 0 8 -4 15 -10 15 -5 0
-7 -7 -4 -15z"/>
<path d="M14887 15942 c6 -24 53 -18 53 7 0 14 -2 14 -11 1 -8 -11 -12 -12
-16 -2 -8 20 -32 14 -26 -6z"/>
<path d="M18901 15944 c0 -11 3 -14 6 -6 3 7 2 16 -1 19 -3 4 -6 -2 -5 -13z"/>
<path d="M14815 15939 c-4 -6 -5 -12 -2 -15 2 -3 7 2 10 11 7 17 1 20 -8 4z"/>
<path d="M18961 15914 c0 -11 3 -14 6 -6 3 7 2 16 -1 19 -3 4 -6 -2 -5 -13z"/>
<path d="M14810 15881 c0 -6 4 -13 10 -16 6 -3 7 1 4 9 -7 18 -14 21 -14 7z"/>
<path d="M19110 15860 c5 -18 12 -35 16 -39 10 -9 -6 53 -17 63 -5 6 -5 -4 1
-24z"/>
<path d="M19163 15848 c3 -9 11 -35 17 -58 6 -23 13 -40 15 -38 7 7 -16 93
-27 103 -8 7 -9 5 -5 -7z"/>
<path d="M14706 15833 c-11 -11 7 -68 26 -83 43 -36 55 -15 13 22 -28 25 -32
38 -10 38 8 0 15 6 15 14 0 13 -34 19 -44 9z"/>
<path d="M19221 15818 c0 -7 4 -22 9 -33 7 -18 8 -19 15 -2 4 9 5 24 1 32 -7
18 -26 20 -25 3z"/>
<path d="M19260 15799 c0 -5 4 -8 9 -5 5 4 12 -8 16 -25 4 -17 9 -28 12 -25
10 10 -9 66 -23 66 -8 0 -14 -5 -14 -11z"/>
<path d="M14798 15783 c-10 -2 -18 -8 -18 -13 0 -5 6 -7 13 -4 8 3 20 -2 27
-11 7 -8 22 -15 34 -15 16 0 21 6 21 24 0 19 -3 22 -13 14 -9 -8 -16 -8 -24 0
-7 7 -14 11 -17 11 -4 -1 -14 -3 -23 -6z"/>
<path d="M19243 15755 c-3 -9 -3 -18 -1 -21 3 -3 8 4 11 16 6 23 -1 27 -10 5z"/>
<path d="M19351 15744 c0 -11 3 -14 6 -6 3 7 2 16 -1 19 -3 4 -6 -2 -5 -13z"/>
<path d="M19404 15728 c3 -13 6 -27 6 -31 0 -5 5 -5 10 -2 6 3 10 13 10 21 0
9 -5 12 -12 8 -8 -5 -9 -2 -5 9 4 10 2 17 -4 17 -7 0 -9 -9 -5 -22z"/>
<path d="M14920 15720 c-13 -8 -12 -10 3 -10 9 0 17 5 17 10 0 12 -1 12 -20 0z"/>
<path d="M19467 15710 c3 -11 9 -22 13 -25 5 -3 6 4 3 15 -3 11 -9 22 -13 25
-5 3 -6 -4 -3 -15z"/>
<path d="M19361 15710 c0 -8 4 -22 9 -30 12 -18 12 -2 0 25 -6 13 -9 15 -9 5z"/>
<path d="M14900 15679 c0 -5 5 -7 10 -4 6 3 10 8 10 11 0 2 -4 4 -10 4 -5 0
-10 -5 -10 -11z"/>
<path d="M19420 15666 c0 -2 7 -7 16 -10 8 -3 12 -2 9 4 -6 10 -25 14 -25 6z"/>
<path d="M14750 15640 c-9 -6 -10 -10 -3 -10 6 0 15 5 18 10 8 12 4 12 -15 0z"/>
<path d="M14805 15609 c-4 -6 -5 -12 -2 -15 2 -3 7 2 10 11 7 17 1 20 -8 4z"/>
<path d="M19730 15610 c0 -8 5 -22 10 -30 9 -13 10 -13 10 0 0 8 -5 22 -10 30
-9 13 -10 13 -10 0z"/>
<path d="M14770 15594 c0 -11 -7 -14 -30 -10 -22 3 -30 0 -30 -11 0 -9 -6 -13
-14 -10 -9 4 -16 -3 -19 -19 -3 -18 0 -24 14 -24 11 0 19 -7 19 -15 0 -8 5
-15 11 -15 6 0 9 -7 5 -15 -7 -20 8 -19 25 1 10 13 10 17 -2 25 -8 5 -18 9
-22 9 -5 0 -7 12 -5 28 2 23 7 27 31 25 22 -1 27 2 27 23 0 13 -2 24 -5 24 -3
0 -5 -7 -5 -16z m-60 -54 c0 -5 -4 -10 -10 -10 -5 0 -10 5 -10 10 0 6 5 10 10
10 6 0 10 -4 10 -10z"/>
<path d="M14840 15554 c0 -8 9 -14 20 -14 11 0 20 4 20 9 0 5 -9 11 -20 14
-13 3 -20 0 -20 -9z"/>
<path d="M19870 15563 c0 -4 5 -15 10 -23 8 -13 10 -13 10 2 0 9 -4 20 -10 23
-5 3 -10 3 -10 -2z"/>
<path d="M14563 15522 c9 -10 17 -23 17 -29 0 -6 7 -14 16 -17 22 -9 24 -8 18
9 -5 11 -2 13 10 9 10 -4 15 -12 12 -19 -2 -7 4 -15 14 -18 13 -3 21 1 26 15
7 24 -23 50 -51 43 -12 -2 -34 2 -50 11 -28 14 -28 14 -12 -4z"/>
<path d="M19960 15533 c0 -4 5 -15 10 -23 8 -13 10 -13 10 2 0 9 -4 20 -10 23
-5 3 -10 3 -10 -2z"/>
<path d="M20056 15485 c10 -46 25 -66 18 -25 -4 19 -11 40 -16 45 -6 6 -7 -1
-2 -20z"/>
<path d="M20121 15485 c0 -6 7 -26 15 -45 l14 -35 -6 35 c-5 31 -25 69 -23 45z"/>
<path d="M14550 15470 c-9 -6 -10 -10 -3 -10 6 0 15 5 18 10 8 12 4 12 -15 0z"/>
<path d="M14695 15450 c-3 -5 -1 -10 4 -10 6 0 11 5 11 10 0 6 -2 10 -4 10 -3
0 -8 -4 -11 -10z"/>
<path d="M20200 15450 c0 -6 4 -9 9 -5 6 3 18 -20 28 -51 21 -67 28 -60 10 11
-9 32 -19 51 -30 53 -9 2 -17 -2 -17 -8z"/>
<path d="M14731 15413 c6 -17 17 -34 25 -37 20 -8 17 5 -12 39 l-24 30 11 -32z"/>
<path d="M20300 15432 c1 -12 49 -97 49 -87 2 26 -21 84 -34 89 -8 3 -15 2
-15 -2z"/>
<path d="M14792 15410 c-7 -11 -8 -20 -3 -20 9 0 24 30 18 36 -1 2 -8 -6 -15
-16z"/>
<path d="M14573 15394 c0 -6 9 -9 19 -6 10 2 18 7 18 11 0 4 -8 7 -18 7 -10 0
-19 -5 -19 -12z"/>
<path d="M20401 15400 c0 -8 4 -24 9 -35 l9 -20 0 20 c0 11 -4 27 -9 35 -9 13
-10 13 -9 0z"/>
<path d="M14674 15380 c0 -13 4 -16 10 -10 7 7 7 13 0 20 -6 6 -10 3 -10 -10z"/>
<path d="M14986 15385 c-4 -13 -2 -14 14 -5 23 13 26 20 6 20 -8 0 -16 -7 -20
-15z"/>
<path d="M20433 15370 c6 -16 13 -27 15 -25 7 7 -8 55 -17 55 -5 0 -4 -13 2
-30z"/>
<path d="M20498 15365 c10 -12 24 -41 32 -64 19 -60 32 -50 14 12 -17 57 -26
70 -49 73 -12 2 -12 -2 3 -21z"/>
<path d="M20596 15328 c19 -38 30 -51 21 -25 -4 9 -2 17 4 17 5 0 12 -8 15
-17 10 -29 34 -79 34 -70 0 15 -23 102 -29 108 -3 4 -19 9 -34 13 l-28 7 17
-33z"/>
<path d="M20703 15310 c6 -16 13 -28 15 -26 6 6 -10 56 -18 56 -5 0 -3 -13 3
-30z"/>
<path d="M14727 15323 c-4 -3 -7 -12 -7 -20 0 -17 26 -17 33 1 8 21 -11 35
-26 19z"/>
<path d="M20721 15323 c2 -19 38 -86 38 -72 1 24 -20 79 -30 79 -5 0 -9 -3 -8
-7z"/>
<path d="M20762 15289 c6 -16 13 -28 15 -25 8 8 -6 56 -17 56 -5 0 -5 -13 2
-31z"/>
<path d="M20822 15284 c8 -17 14 -21 19 -12 5 8 17 -8 34 -46 28 -64 40 -71
24 -13 -5 21 -7 46 -4 56 6 20 -10 30 -57 36 -26 4 -26 2 -16 -21z"/>
<path d="M14601 15263 l1 -28 8 25 c8 24 8 24 9 3 1 -23 15 -31 25 -14 10 16
-5 41 -25 41 -14 0 -19 -7 -18 -27z"/>
<path d="M20930 15281 c0 -6 5 -13 10 -16 6 -3 10 1 10 9 0 9 -4 16 -10 16 -5
0 -10 -4 -10 -9z"/>
<path d="M20980 15276 c0 -2 7 -21 16 -42 9 -22 20 -50 25 -63 16 -41 19 -17
4 32 -8 26 -12 47 -9 47 2 0 16 -25 29 -57 14 -31 28 -54 30 -51 6 6 -25 108
-38 126 -8 11 -57 18 -57 8z"/>
<path d="M14680 15260 c0 -5 5 -10 10 -10 6 0 10 5 10 10 0 6 -4 10 -10 10 -5
0 -10 -4 -10 -10z"/>
<path d="M21096 15248 c3 -4 11 -8 19 -8 8 0 23 -26 36 -60 18 -50 26 -60 45
-60 12 0 25 -4 28 -8 3 -5 23 -9 46 -10 36 -2 40 0 40 23 0 14 -4 25 -9 25 -9
0 -24 60 -17 67 2 2 13 -24 26 -57 16 -44 28 -61 44 -65 56 -11 153 -25 171
-25 20 1 68 -5 140 -16 22 -3 81 -8 132 -10 l91 -4 -25 63 c-13 34 -28 65 -31
69 -4 3 -81 13 -172 22 -253 23 -257 24 -390 41 -164 21 -180 23 -174 13z"/>
<path d="M14730 15201 c0 -6 5 -13 10 -16 6 -3 10 1 10 9 0 9 -4 16 -10 16 -5
0 -10 -4 -10 -9z"/>
<path d="M14440 15156 c0 -9 5 -16 10 -16 6 0 10 4 10 9 0 6 -4 13 -10 16 -5
3 -10 -1 -10 -9z"/>
<path d="M14519 15161 c7 -5 11 -13 7 -19 -6 -10 34 -25 43 -17 2 3 -1 5 -7 5
-7 0 -12 6 -12 14 0 8 -7 17 -16 20 -23 9 -31 7 -15 -3z"/>
<path d="M14643 15055 c0 -8 4 -12 9 -9 4 3 8 9 8 15 0 5 -4 9 -8 9 -5 0 -9
-7 -9 -15z"/>
<path d="M14795 15060 c3 -5 8 -10 11 -10 2 0 4 5 4 10 0 6 -5 10 -11 10 -5 0
-7 -4 -4 -10z"/>
<path d="M14598 15000 c2 -16 9 -30 14 -30 5 0 6 10 3 23 -11 35 -22 40 -17 7z"/>
<path d="M14556 14934 c-9 -8 -16 -18 -16 -22 0 -3 5 -1 12 6 7 7 26 12 43 12
23 0 26 3 15 10 -21 14 -36 12 -54 -6z"/>
<path d="M14392 14913 c4 -21 39 -24 46 -4 3 8 0 11 -7 7 -6 -4 -11 -2 -11 3
0 6 -7 11 -16 11 -9 0 -14 -7 -12 -17z"/>
<path d="M14380 14880 c0 -5 5 -10 10 -10 6 0 10 5 10 10 0 6 -4 10 -10 10 -5
0 -10 -4 -10 -10z"/>
<path d="M14620 14880 c0 -9 38 -29 44 -23 14 14 4 28 -19 28 -14 0 -25 -2
-25 -5z"/>
<path d="M14492 14863 c2 -10 14 -19 26 -21 13 -2 26 -10 29 -18 8 -21 22 -7
16 16 -3 11 -10 17 -16 13 -6 -4 -8 0 -5 8 4 11 -2 16 -24 17 -23 2 -29 -1
-26 -15z"/>
<path d="M14550 14750 c0 -11 3 -20 8 -20 4 0 13 9 20 20 11 18 10 20 -8 20
-13 0 -20 -7 -20 -20z"/>
<path d="M14677 14704 c-12 -13 -7 -20 13 -20 11 0 19 5 17 10 -4 13 -21 18
-30 10z"/>
<path d="M14316 14683 c-6 -14 -5 -15 5 -6 7 7 10 15 7 18 -3 3 -9 -2 -12 -12z"/>
<path d="M14565 14690 c-3 -6 1 -7 9 -4 18 7 21 14 7 14 -6 0 -13 -4 -16 -10z"/>
<path d="M14372 14670 c-6 -11 -12 -25 -12 -32 0 -8 5 -5 11 5 5 9 19 17 29
17 13 0 18 5 14 15 -8 21 -27 19 -42 -5z"/>
<path d="M14305 14610 c3 -5 8 -10 11 -10 2 0 4 5 4 10 0 6 -5 10 -11 10 -5 0
-7 -4 -4 -10z"/>
<path d="M14390 14600 c0 -5 4 -10 9 -10 6 0 13 5 16 10 3 6 -1 10 -9 10 -9 0
-16 -4 -16 -10z"/>
<path d="M14450 14606 c0 -2 7 -6 15 -10 8 -3 15 -1 15 4 0 6 -7 10 -15 10 -8
0 -15 -2 -15 -4z"/>
<path d="M14491 14574 c0 -11 3 -14 6 -6 3 7 2 16 -1 19 -3 4 -6 -2 -5 -13z"/>
<path d="M14660 14560 c0 -5 5 -10 10 -10 6 0 10 5 10 10 0 6 -4 10 -10 10 -5
0 -10 -4 -10 -10z"/>
<path d="M14355 14547 c-27 -30 -26 -36 5 -24 16 6 30 17 30 24 0 16 -22 16
-35 0z"/>
<path d="M14477 14503 c-11 -3 -16 -10 -13 -20 3 -8 6 -17 6 -19 0 -2 6 -4 14
-4 9 0 13 10 12 25 0 14 -1 24 -1 24 0 -1 -8 -3 -18 -6z"/>
<path d="M14390 14470 c0 -5 7 -10 15 -10 8 0 15 5 15 10 0 6 -7 10 -15 10 -8
0 -15 -4 -15 -10z"/>
<path d="M14377 14410 c3 -11 9 -17 15 -14 5 3 4 12 -3 20 -16 19 -18 18 -12
-6z"/>
<path d="M14516 14403 c5 -5 12 -12 16 -18 4 -6 8 -2 8 8 0 9 -7 17 -17 17 -9
0 -12 -3 -7 -7z"/>
<path d="M14235 14344 c-21 -21 -20 -22 20 -21 40 1 43 7 15 24 -15 10 -22 10
-35 -3z"/>
<path d="M14333 14329 c-1 -11 5 -19 13 -19 8 0 14 -10 14 -25 0 -22 -4 -25
-40 -25 -32 0 -40 -4 -40 -18 0 -10 -9 -25 -20 -35 -12 -10 -18 -22 -14 -29 4
-7 10 -5 16 6 5 9 20 16 33 16 19 0 25 5 25 23 0 16 6 23 22 24 13 1 24 7 26
13 2 5 9 7 15 3 7 -4 8 0 4 10 -20 48 -20 52 -4 32 16 -19 16 -18 5 10 -12 35
-53 45 -55 14z"/>
<path d="M14590 14340 c0 -5 7 -10 15 -10 8 0 15 5 15 10 0 6 -7 10 -15 10 -8
0 -15 -4 -15 -10z"/>
<path d="M14450 14309 c0 -16 4 -28 9 -25 8 5 3 56 -5 56 -2 0 -4 -14 -4 -31z"/>
<path d="M14246 14285 c-14 -10 -17 -18 -10 -25 7 -7 14 -3 22 15 13 29 13 29
-12 10z"/>
<path d="M14458 14203 c7 -3 16 -2 19 1 4 3 -2 6 -13 5 -11 0 -14 -3 -6 -6z"/>
<path d="M14151 14126 c5 -26 25 -31 33 -9 4 9 4 14 0 10 -4 -4 -14 -1 -22 5
-12 10 -14 9 -11 -6z"/>
<path d="M14220 14122 c0 -10 9 -29 20 -42 19 -22 20 -22 20 -3 0 11 -3 23 -7
27 -5 4 -8 13 -8 19 0 5 -6 12 -12 15 -8 2 -13 -5 -13 -16z"/>
<path d="M14328 14093 c7 -3 16 -2 19 1 4 3 -2 6 -13 5 -11 0 -14 -3 -6 -6z"/>
<path d="M14380 14074 c0 -8 5 -12 10 -9 6 4 8 11 5 16 -9 14 -15 11 -15 -7z"/>
<path d="M14240 14009 c0 -5 5 -7 10 -4 6 3 10 8 10 11 0 2 -4 4 -10 4 -5 0
-10 -5 -10 -11z"/>
<path d="M14154 13948 c1 -7 16 -15 32 -18 19 -4 29 -11 28 -22 -1 -10 1 -16
5 -15 3 0 16 -4 28 -11 16 -9 22 -9 25 0 3 7 12 9 22 5 9 -4 14 -11 11 -17 -3
-5 -1 -10 4 -10 6 0 11 11 11 25 0 20 -5 25 -24 25 -14 0 -33 11 -44 25 -19
24 -62 35 -62 15 0 -13 -27 -13 -33 0 -3 6 -4 5 -3 -2z"/>
<path d="M14080 13815 c-11 -13 -5 -15 46 -15 53 0 56 1 38 15 -25 19 -68 19
-84 0z"/>
<path d="M14247 13783 c-10 -9 -9 -23 1 -23 5 0 9 7 9 15 0 17 -1 18 -10 8z"/>
<path d="M14052 13738 c5 -15 78 -24 78 -10 0 5 -11 7 -25 4 -15 -2 -25 0 -25
7 0 6 -7 11 -16 11 -9 0 -14 -6 -12 -12z"/>
<path d="M14170 13721 c0 -16 28 -20 40 -5 10 12 8 14 -14 14 -14 0 -26 -4
-26 -9z"/>
<path d="M13990 13687 c0 -26 31 -56 62 -59 32 -3 53 -28 24 -28 -9 0 -16 -4
-16 -10 0 -5 -9 -10 -20 -10 -11 0 -20 5 -20 11 0 5 -4 8 -9 4 -5 -3 -12 -1
-15 4 -4 5 -16 4 -31 -2 l-25 -12 28 -5 c15 -3 27 -11 27 -18 0 -6 3 -12 8
-12 4 0 21 0 37 0 23 0 30 5 30 19 0 10 8 21 18 24 11 2 21 14 25 26 5 22 2
23 -63 25 -20 1 -26 7 -28 29 -3 27 -32 40 -32 14z"/>
<path d="M14220 13681 c0 -5 6 -14 14 -20 12 -10 13 -8 9 8 -5 21 -23 30 -23
12z"/>
<path d="M14190 13500 c0 -5 4 -10 9 -10 6 0 13 5 16 10 3 6 -1 10 -9 10 -9 0
-16 -4 -16 -10z"/>
<path d="M14060 13462 c0 -4 9 -8 20 -9 11 -1 20 2 20 8 0 5 -9 9 -20 9 -11 0
-20 -4 -20 -8z"/>
<path d="M13874 13388 c-12 -40 -10 -92 5 -110 19 -24 51 -23 51 0 0 13 -7 18
-21 18 -30 -1 -35 20 -7 29 l23 8 -22 4 c-25 5 -29 23 -13 54 7 12 7 19 1 19
-5 0 -13 -10 -17 -22z"/>
<path d="M13945 13367 c2 -24 9 -34 29 -41 14 -6 26 -16 26 -23 0 -7 5 -13 10
-13 20 0 9 44 -17 67 -51 44 -51 44 -48 10z"/>
<path d="M14050 13338 c0 -20 25 -24 36 -6 5 7 3 8 -6 3 -7 -4 -16 -2 -21 6
-7 11 -9 10 -9 -3z"/>
<path d="M13980 13270 c0 -5 -9 -10 -20 -10 -17 0 -20 -7 -20 -50 0 -40 3 -48
15 -44 18 7 20 21 3 27 -7 2 -9 8 -5 13 4 4 17 3 27 -4 12 -7 20 -8 20 -2 0 5
-4 10 -9 10 -6 0 -7 16 -4 35 3 19 3 35 -1 35 -3 0 -6 -4 -6 -10z m-10 -24 c0
-3 -4 -8 -10 -11 -5 -3 -10 -1 -10 4 0 6 5 11 10 11 6 0 10 -2 10 -4z"/>
<path d="M13838 13263 c-19 -5 -22 -12 -12 -37 11 -28 34 -18 34 14 0 17 -1
29 -2 29 -2 -1 -11 -3 -20 -6z"/>
<path d="M14088 13213 c7 -3 16 -2 19 1 4 3 -2 6 -13 5 -11 0 -14 -3 -6 -6z"/>
<path d="M14252 13205 c-11 -12 -10 -15 3 -15 8 0 15 7 15 15 0 18 -2 18 -18
0z"/>
<path d="M13887 13163 c-11 -10 -8 -20 8 -27 10 -4 15 1 15 14 0 20 -11 26
-23 13z"/>
<path d="M14054 13149 c2 -15 20 -13 24 3 3 10 2 10 -6 -1 -7 -9 -11 -10 -15
-2 -4 7 -5 8 -3 0z"/>
<path d="M14110 13099 c0 -5 5 -7 10 -4 6 3 10 8 10 11 0 2 -4 4 -10 4 -5 0
-10 -5 -10 -11z"/>
<path d="M13970 12995 c0 -8 5 -15 10 -15 6 0 10 7 10 15 0 8 -4 15 -10 15 -5
0 -10 -7 -10 -15z"/>
<path d="M13940 12991 c0 -6 4 -12 8 -15 5 -3 9 1 9 9 0 8 -4 15 -9 15 -4 0
-8 -4 -8 -9z"/>
<path d="M13806 12973 c-2 -3 5 -14 16 -25 25 -25 103 -39 96 -17 -3 8 -17 13
-32 12 -19 -1 -26 3 -26 16 0 13 -8 19 -25 19 -13 0 -26 -3 -29 -5z"/>
<path d="M13673 12955 c-3 -9 -3 -18 -1 -21 3 -3 8 4 11 16 6 23 -1 27 -10 5z"/>
<path d="M13954 12931 c0 -11 4 -17 8 -15 4 3 8 12 8 20 0 8 -4 14 -8 14 -4 0
-8 -9 -8 -19z"/>
<path d="M13783 12903 c9 -2 23 -2 30 0 6 3 -1 5 -18 5 -16 0 -22 -2 -12 -5z"/>
<path d="M14066 12887 c3 -10 9 -15 12 -12 3 3 0 11 -7 18 -10 9 -11 8 -5 -6z"/>
<path d="M13940 12875 c0 -8 2 -15 4 -15 2 0 6 7 10 15 3 8 1 15 -4 15 -6 0
-10 -7 -10 -15z"/>
<path d="M13970 12865 c0 -8 5 -15 11 -15 7 0 18 -8 26 -17 13 -16 13 -16 3 5
-6 12 -8 27 -5 32 3 6 -3 10 -14 10 -12 0 -21 -7 -21 -15z"/>
<path d="M13686 12836 c4 -17 0 -27 -13 -35 -16 -9 -15 -10 10 -11 20 0 27 -5
27 -20 0 -11 -4 -20 -9 -20 -9 0 -9 -56 0 -63 9 -9 110 -14 115 -6 3 5 -13 9
-35 9 -31 0 -41 4 -46 20 -8 24 -25 27 -25 3 0 -9 -3 -13 -7 -9 -4 4 1 22 12
42 14 26 16 37 7 46 -18 18 -14 48 6 49 14 0 14 2 -3 9 -36 15 -46 12 -39 -14z"/>
<path d="M13868 12838 c2 -10 8 -21 13 -24 5 -3 6 2 2 11 -3 10 0 21 8 26 10
6 8 8 -7 7 -15 -2 -20 -7 -16 -20z"/>
<path d="M13756 12835 c4 -8 8 -15 10 -15 2 0 4 7 4 15 0 8 -4 15 -10 15 -5 0
-7 -7 -4 -15z"/>
<path d="M13800 12796 c0 -2 14 -6 30 -8 17 -3 30 -1 30 4 0 4 -13 8 -30 8
-16 0 -30 -2 -30 -4z"/>
<path d="M13913 12662 c-13 -2 -23 -10 -23 -18 0 -19 39 -18 47 1 7 20 4 22
-24 17z"/>
<path d="M13896 12582 c-3 -5 1 -9 9 -9 8 0 15 4 15 9 0 4 -4 8 -9 8 -6 0 -12
-4 -15 -8z"/>
<path d="M13716 12565 c25 -19 34 -19 34 0 0 10 -10 15 -27 15 -26 0 -26 -1
-7 -15z"/>
<path d="M13950 12510 c0 -5 5 -10 10 -10 6 0 10 5 10 10 0 6 -4 10 -10 10 -5
0 -10 -4 -10 -10z"/>
<path d="M13782 12485 c0 -16 2 -22 5 -12 2 9 2 23 0 30 -3 6 -5 -1 -5 -18z"/>
<path d="M13642 12451 c-12 -7 -12 -12 -1 -30 8 -11 17 -21 21 -21 12 0 19 18
8 25 -5 3 -10 11 -10 16 0 6 5 7 12 3 7 -4 8 -3 4 4 -8 14 -16 15 -34 3z"/>
<path d="M13706 12452 c-3 -6 -1 -14 5 -17 15 -10 25 3 12 16 -7 7 -13 7 -17
1z"/>
<path d="M13630 12309 c0 -11 4 -18 10 -14 5 3 7 12 3 20 -7 21 -13 19 -13 -6z"/>
<path d="M13692 12310 c0 -14 2 -19 5 -12 2 6 2 18 0 25 -3 6 -5 1 -5 -13z"/>
<path d="M13564 12294 c2 -15 -1 -21 -12 -20 -9 0 -18 -7 -20 -16 -2 -13 2
-15 19 -11 15 4 20 3 15 -5 -4 -7 -2 -12 3 -12 13 0 13 38 0 65 -9 19 -9 19
-5 -1z"/>
<path d="M13757 12293 c-4 -3 -7 -11 -7 -17 0 -6 5 -5 12 2 6 6 9 14 7 17 -3
3 -9 2 -12 -2z"/>
<path d="M13596 12275 c4 -8 10 -15 15 -15 5 0 9 7 9 15 0 8 -7 15 -15 15 -9
0 -12 -6 -9 -15z"/>
<path d="M13598 12184 c2 -13 8 -24 13 -24 14 0 10 37 -4 43 -10 4 -13 -2 -9
-19z"/>
<path d="M13710 12195 c0 -8 5 -15 10 -15 6 0 10 7 10 15 0 8 -4 15 -10 15 -5
0 -10 -7 -10 -15z"/>
<path d="M13755 12181 c-3 -5 -1 -12 5 -16 5 -3 10 1 10 9 0 18 -6 21 -15 7z"/>
<path d="M13720 12151 c0 -10 19 -25 25 -20 1 2 -3 10 -11 17 -8 7 -14 8 -14
3z"/>
<path d="M13790 12145 c0 -8 5 -15 10 -15 6 0 10 7 10 15 0 8 -4 15 -10 15 -5
0 -10 -7 -10 -15z"/>
<path d="M13630 12100 c0 -22 34 -28 46 -8 4 7 3 8 -4 4 -7 -4 -12 -3 -12 2 0
6 -7 12 -15 16 -10 4 -15 -1 -15 -14z"/>
<path d="M13713 12103 c-18 -6 -16 -23 1 -23 8 0 16 -6 19 -12 2 -7 8 -9 13
-5 5 4 4 11 -2 15 -6 4 -13 12 -15 18 -2 6 -10 9 -16 7z"/>
<path d="M13810 12035 c0 -8 5 -15 10 -15 6 0 10 7 10 15 0 8 -4 15 -10 15 -5
0 -10 -7 -10 -15z"/>
<path d="M15401 10054 c0 -11 3 -14 6 -6 3 7 2 16 -1 19 -3 4 -6 -2 -5 -13z"/>
<path d="M15291 9694 c0 -11 3 -14 6 -6 3 7 2 16 -1 19 -3 4 -6 -2 -5 -13z"/>
<path d="M15192 9300 c0 -14 2 -19 5 -12 2 6 2 18 0 25 -3 6 -5 1 -5 -13z"/>
<path d="M15161 9154 c0 -11 3 -14 6 -6 3 7 2 16 -1 19 -3 4 -6 -2 -5 -13z"/>
<path d="M15142 9050 c0 -14 2 -19 5 -12 2 6 2 18 0 25 -3 6 -5 1 -5 -13z"/>
<path d="M15126 8964 c-4 -20 -5 -38 -3 -40 3 -3 8 11 11 32 4 20 5 38 3 40
-3 3 -8 -11 -11 -32z"/>
</g>
</svg>
